<svg width="95" height="96" viewBox="0 0 95 96" fill="none" xmlns="http://www.w3.org/2000/svg">
<g filter="url(#filter0_d_205_41)">
<path d="M24.4375 63.125C27.625 60.6875 31.1875 58.7656 35.125 57.3594C39.0625 55.9531 43.1875 55.25 47.5 55.25C51.8125 55.25 55.9375 55.9531 59.875 57.3594C63.8125 58.7656 67.375 60.6875 70.5625 63.125C72.75 60.5625 74.4531 57.6563 75.6719 54.4063C76.8906 51.1562 77.5 47.6875 77.5 44C77.5 35.6875 74.5781 28.6094 68.7344 22.7656C62.8906 16.9219 55.8125 14 47.5 14C39.1875 14 32.1094 16.9219 26.2656 22.7656C20.4219 28.6094 17.5 35.6875 17.5 44C17.5 47.6875 18.1094 51.1562 19.3281 54.4063C20.5469 57.6563 22.25 60.5625 24.4375 63.125ZM47.5 47.75C43.8125 47.75 40.7031 46.4844 38.1719 43.9531C35.6406 41.4219 34.375 38.3125 34.375 34.625C34.375 30.9375 35.6406 27.8281 38.1719 25.2969C40.7031 22.7656 43.8125 21.5 47.5 21.5C51.1875 21.5 54.2969 22.7656 56.8281 25.2969C59.3594 27.8281 60.625 30.9375 60.625 34.625C60.625 38.3125 59.3594 41.4219 56.8281 43.9531C54.2969 46.4844 51.1875 47.75 47.5 47.75ZM47.5 81.5C42.3125 81.5 37.4375 80.5156 32.875 78.5469C28.3125 76.5781 24.3438 73.9062 20.9688 70.5312C17.5937 67.1563 14.9219 63.1875 12.9531 58.625C10.9844 54.0625 10 49.1875 10 44C10 38.8125 10.9844 33.9375 12.9531 29.375C14.9219 24.8125 17.5937 20.8438 20.9688 17.4688C24.3438 14.0937 28.3125 11.4219 32.875 9.45312C37.4375 7.48437 42.3125 6.5 47.5 6.5C52.6875 6.5 57.5625 7.48437 62.125 9.45312C66.6875 11.4219 70.6563 14.0937 74.0312 17.4688C77.4062 20.8438 80.0781 24.8125 82.0469 29.375C84.0156 33.9375 85 38.8125 85 44C85 49.1875 84.0156 54.0625 82.0469 58.625C80.0781 63.1875 77.4062 67.1563 74.0312 70.5312C70.6563 73.9062 66.6875 76.5781 62.125 78.5469C57.5625 80.5156 52.6875 81.5 47.5 81.5Z" fill="white"/>
</g>
<defs>
<filter id="filter0_d_205_41" x="0.3" y="0.8" width="94.4" height="94.4" filterUnits="userSpaceOnUse" color-interpolation-filters="sRGB">
<feFlood flood-opacity="0" result="BackgroundImageFix"/>
<feColorMatrix in="SourceAlpha" type="matrix" values="0 0 0 0 0 0 0 0 0 0 0 0 0 0 0 0 0 0 127 0" result="hardAlpha"/>
<feOffset dy="4"/>
<feGaussianBlur stdDeviation="4.85"/>
<feComposite in2="hardAlpha" operator="out"/>
<feColorMatrix type="matrix" values="0 0 0 0 0 0 0 0 0 0 0 0 0 0 0 0 0 0 0.65 0"/>
<feBlend mode="normal" in2="BackgroundImageFix" result="effect1_dropShadow_205_41"/>
<feBlend mode="normal" in="SourceGraphic" in2="effect1_dropShadow_205_41" result="shape"/>
</filter>
</defs>
</svg>
