<svg width="117" height="98" viewBox="0 0 117 98" fill="none" xmlns="http://www.w3.org/2000/svg">
<g filter="url(#filter0_d_15_14)">
<path d="M87.4277 23.233C79.13 21.9714 70.6482 22.8254 62.7686 25.7159L61.1416 26.3366C50.4783 30.6579 38.8467 32.0225 27.4728 30.2865C22.5918 29.5342 17.5039 28.321 13.046 26.0968C11.4217 25.2918 10.1696 23.8922 9.54969 22.1886C8.92979 20.485 8.98963 18.6081 9.71682 16.9474C10.444 15.2868 11.7827 13.9699 13.455 13.27C15.1274 12.5701 17.005 12.5411 18.6982 13.1888L19.319 13.4616C22.526 14.9663 26.1374 15.808 29.6171 16.3441C35.937 17.3128 44.5846 17.3786 54.2762 13.8566L55.9032 13.2358C66.5664 8.91447 78.198 7.54988 89.5719 9.28588C94.453 10.0383 99.5362 11.2562 103.989 13.471C105.653 14.3196 106.916 15.7879 107.508 17.5595C108.099 19.331 107.97 21.2639 107.149 22.9415C105.414 26.4118 101.873 27.2065 97.7211 26.1109L87.4277 23.233ZM87.4277 51.4471C79.13 50.1854 70.6482 51.0394 62.7686 53.9299L61.1416 54.5506C50.4783 58.872 38.8467 60.2366 27.4728 58.5006C22.5918 57.7482 17.5039 56.535 13.046 54.3108C11.4217 53.5058 10.1696 52.1063 9.54969 50.4027C8.92979 48.6991 8.98963 46.8222 9.71682 45.1615C10.444 43.5008 11.7827 42.1839 13.455 41.4841C15.1274 40.7842 17.005 40.7551 18.6982 41.4029L19.319 41.6756C22.526 43.1804 26.1374 44.0221 29.6171 44.5581C35.937 45.5268 44.5846 45.5927 54.2762 42.0706L55.9032 41.4499C66.5664 37.1285 78.198 35.7639 89.5719 37.4999C94.453 38.2523 99.5362 39.4702 103.989 41.685C105.653 42.5336 106.916 44.002 107.508 45.7735C108.099 47.5451 107.97 49.478 107.149 51.1555C105.414 54.6306 101.873 55.4206 97.7211 54.3249L87.4277 51.4471ZM59.4299 83.423L61.1416 82.7647C69.4638 79.3801 78.5461 78.3078 87.4277 79.6611L97.7258 82.539C101.873 83.6346 105.414 82.8446 107.154 79.3696C107.973 77.6919 108.1 75.7598 107.508 73.9893C106.916 72.2187 105.653 70.7516 103.989 69.9038C99.5362 67.6843 94.453 66.4711 89.5719 65.7187C78.8115 64.078 67.8103 65.211 57.6101 69.0103L55.9032 69.6686C45.5486 73.8067 36.285 73.7973 29.6171 72.7722C26.6358 72.3114 23.5511 71.6295 20.7156 70.4963L19.319 69.885C17.6428 69.0531 15.7049 68.9212 13.9314 69.5182C12.158 70.1152 10.6944 71.3923 9.86255 73.0684C9.03071 74.7446 8.89879 76.6825 9.49581 78.456C10.0928 80.2294 11.3699 81.693 13.046 82.5248C17.4992 84.7491 22.5918 85.9623 27.4728 86.7099C35.7113 87.9796 46.9546 88.0266 59.4299 83.4183V83.423Z" fill="url(#paint0_linear_15_14)"/>
</g>
<defs>
<filter id="filter0_d_15_14" x="0.424512" y="0.853711" width="116.151" height="96.2931" filterUnits="userSpaceOnUse" color-interpolation-filters="sRGB">
<feFlood flood-opacity="0" result="BackgroundImageFix"/>
<feColorMatrix in="SourceAlpha" type="matrix" values="0 0 0 0 0 0 0 0 0 0 0 0 0 0 0 0 0 0 127 0" result="hardAlpha"/>
<feOffset dy="1"/>
<feGaussianBlur stdDeviation="4.35"/>
<feComposite in2="hardAlpha" operator="out"/>
<feColorMatrix type="matrix" values="0 0 0 0 0.22559 0 0 0 0 0.866707 0 0 0 0 0.9125 0 0 0 0.35 0"/>
<feBlend mode="normal" in2="BackgroundImageFix" result="effect1_dropShadow_15_14"/>
<feBlend mode="normal" in="SourceGraphic" in2="effect1_dropShadow_15_14" result="shape"/>
</filter>
<linearGradient id="paint0_linear_15_14" x1="16.178" y1="89.5264" x2="100.86" y2="-19.296" gradientUnits="userSpaceOnUse">
<stop stop-color="#26695C"/>
<stop offset="1" stop-color="#6944B3"/>
</linearGradient>
</defs>
</svg>
